<mxfile host="app.diagrams.net" agent="Mozilla/5.0 (Windows NT 10.0; Win64; x64) AppleWebKit/537.36 (KHTML, like Gecko) Chrome/138.0.0.0 Safari/537.36 Edg/138.0.0.0" version="27.1.4">
  <diagram id="C5RBs43oDa-KdzZeNtuy" name="Page-1">
    <mxGraphModel dx="2495" dy="925" grid="1" gridSize="10" guides="1" tooltips="1" connect="1" arrows="1" fold="1" page="1" pageScale="1" pageWidth="827" pageHeight="1169" math="0" shadow="0">
      <root>
        <mxCell id="WIyWlLk6GJQsqaUBKTNV-0" />
        <mxCell id="WIyWlLk6GJQsqaUBKTNV-1" parent="WIyWlLk6GJQsqaUBKTNV-0" />
        <mxCell id="M7CGMbNuYNeq0SnUNNgH-6" value="ทบทวนสัญลักษณ์" style="swimlane;fontFamily=Sarabun;fontSource=https%3A%2F%2Ffonts.googleapis.com%2Fcss%3Ffamily%3DSarabun;" parent="WIyWlLk6GJQsqaUBKTNV-1" vertex="1">
          <mxGeometry x="-720" y="20" width="650" height="290" as="geometry" />
        </mxCell>
        <mxCell id="M7CGMbNuYNeq0SnUNNgH-2" value="&lt;font data-font-src=&quot;https://fonts.googleapis.com/css?family=Sarabun&quot; face=&quot;Sarabun&quot;&gt;เริ่มต้น&lt;/font&gt;" style="ellipse;whiteSpace=wrap;html=1;" parent="M7CGMbNuYNeq0SnUNNgH-6" vertex="1">
          <mxGeometry x="20" y="40" width="130" height="30" as="geometry" />
        </mxCell>
        <mxCell id="M7CGMbNuYNeq0SnUNNgH-5" value="" style="endArrow=classic;html=1;rounded=0;" parent="M7CGMbNuYNeq0SnUNNgH-6" edge="1">
          <mxGeometry width="50" height="50" relative="1" as="geometry">
            <mxPoint x="84.5" y="70" as="sourcePoint" />
            <mxPoint x="84.5" y="120" as="targetPoint" />
          </mxGeometry>
        </mxCell>
        <mxCell id="M7CGMbNuYNeq0SnUNNgH-3" value="&lt;font face=&quot;Sarabun&quot;&gt;สิ้นสุด&lt;/font&gt;" style="ellipse;whiteSpace=wrap;html=1;" parent="M7CGMbNuYNeq0SnUNNgH-6" vertex="1">
          <mxGeometry x="150" y="90" width="130" height="30" as="geometry" />
        </mxCell>
        <mxCell id="M7CGMbNuYNeq0SnUNNgH-4" value="" style="endArrow=classic;html=1;rounded=0;" parent="M7CGMbNuYNeq0SnUNNgH-6" edge="1">
          <mxGeometry width="50" height="50" relative="1" as="geometry">
            <mxPoint x="214.5" y="40" as="sourcePoint" />
            <mxPoint x="214.5" y="90" as="targetPoint" />
          </mxGeometry>
        </mxCell>
        <mxCell id="mvioNwK95yMqdUQ73LqQ-0" value="กระบวนการ" style="rounded=0;whiteSpace=wrap;html=1;fontFamily=Sarabun;fontSource=https%3A%2F%2Ffonts.googleapis.com%2Fcss%3Ffamily%3DSarabun;" parent="M7CGMbNuYNeq0SnUNNgH-6" vertex="1">
          <mxGeometry x="320" y="70" width="120" height="30" as="geometry" />
        </mxCell>
        <mxCell id="mvioNwK95yMqdUQ73LqQ-1" value="" style="endArrow=classic;html=1;rounded=0;" parent="M7CGMbNuYNeq0SnUNNgH-6" edge="1">
          <mxGeometry width="50" height="50" relative="1" as="geometry">
            <mxPoint x="379" y="40" as="sourcePoint" />
            <mxPoint x="379.5" y="70" as="targetPoint" />
          </mxGeometry>
        </mxCell>
        <mxCell id="mvioNwK95yMqdUQ73LqQ-2" value="" style="endArrow=classic;html=1;rounded=0;" parent="M7CGMbNuYNeq0SnUNNgH-6" edge="1">
          <mxGeometry width="50" height="50" relative="1" as="geometry">
            <mxPoint x="379.75" y="100" as="sourcePoint" />
            <mxPoint x="380.25" y="130" as="targetPoint" />
          </mxGeometry>
        </mxCell>
        <mxCell id="mvioNwK95yMqdUQ73LqQ-3" value="ประโยคเงื่อนไข" style="rhombus;whiteSpace=wrap;html=1;fontFamily=Sarabun;fontSource=https%3A%2F%2Ffonts.googleapis.com%2Fcss%3Ffamily%3DSarabun;" parent="M7CGMbNuYNeq0SnUNNgH-6" vertex="1">
          <mxGeometry x="490" y="60" width="100" height="60" as="geometry" />
        </mxCell>
        <mxCell id="mvioNwK95yMqdUQ73LqQ-4" value="" style="endArrow=classic;html=1;rounded=0;" parent="M7CGMbNuYNeq0SnUNNgH-6" edge="1">
          <mxGeometry width="50" height="50" relative="1" as="geometry">
            <mxPoint x="539.71" y="30" as="sourcePoint" />
            <mxPoint x="540.21" y="60" as="targetPoint" />
          </mxGeometry>
        </mxCell>
        <mxCell id="mvioNwK95yMqdUQ73LqQ-5" value="" style="endArrow=classic;html=1;rounded=0;" parent="M7CGMbNuYNeq0SnUNNgH-6" edge="1">
          <mxGeometry width="50" height="50" relative="1" as="geometry">
            <mxPoint x="539.71" y="120" as="sourcePoint" />
            <mxPoint x="540" y="175" as="targetPoint" />
          </mxGeometry>
        </mxCell>
        <mxCell id="mvioNwK95yMqdUQ73LqQ-7" value="จริง" style="edgeLabel;html=1;align=center;verticalAlign=middle;resizable=0;points=[];fontFamily=Sarabun;fontSource=https%3A%2F%2Ffonts.googleapis.com%2Fcss%3Ffamily%3DSarabun;" parent="mvioNwK95yMqdUQ73LqQ-5" vertex="1" connectable="0">
          <mxGeometry x="-0.4142" y="-1" relative="1" as="geometry">
            <mxPoint as="offset" />
          </mxGeometry>
        </mxCell>
        <mxCell id="mvioNwK95yMqdUQ73LqQ-6" value="" style="endArrow=classic;html=1;rounded=0;exitX=1;exitY=0.5;exitDx=0;exitDy=0;" parent="M7CGMbNuYNeq0SnUNNgH-6" source="mvioNwK95yMqdUQ73LqQ-3" edge="1">
          <mxGeometry width="50" height="50" relative="1" as="geometry">
            <mxPoint x="620" y="95" as="sourcePoint" />
            <mxPoint x="610" y="175" as="targetPoint" />
            <Array as="points">
              <mxPoint x="610" y="90" />
            </Array>
          </mxGeometry>
        </mxCell>
        <mxCell id="mvioNwK95yMqdUQ73LqQ-8" value="&lt;font data-font-src=&quot;https://fonts.googleapis.com/css?family=Sarabun&quot; face=&quot;Sarabun&quot;&gt;เท็จ&lt;/font&gt;" style="edgeLabel;html=1;align=center;verticalAlign=middle;resizable=0;points=[];" parent="mvioNwK95yMqdUQ73LqQ-6" vertex="1" connectable="0">
          <mxGeometry x="-0.0019" y="-2" relative="1" as="geometry">
            <mxPoint as="offset" />
          </mxGeometry>
        </mxCell>
        <mxCell id="mvioNwK95yMqdUQ73LqQ-9" value="&lt;font data-font-src=&quot;https://fonts.googleapis.com/css?family=Sarabun&quot; face=&quot;Sarabun&quot;&gt;ฟังก์ชัน/โมดูล&lt;/font&gt;" style="shape=process;whiteSpace=wrap;html=1;backgroundOutline=1;" parent="M7CGMbNuYNeq0SnUNNgH-6" vertex="1">
          <mxGeometry x="25" y="180" width="120" height="30" as="geometry" />
        </mxCell>
        <mxCell id="mvioNwK95yMqdUQ73LqQ-11" value="" style="endArrow=classic;html=1;rounded=0;" parent="M7CGMbNuYNeq0SnUNNgH-6" edge="1">
          <mxGeometry width="50" height="50" relative="1" as="geometry">
            <mxPoint x="84.70999999999998" y="150" as="sourcePoint" />
            <mxPoint x="85.20999999999998" y="180" as="targetPoint" />
          </mxGeometry>
        </mxCell>
        <mxCell id="mvioNwK95yMqdUQ73LqQ-12" value="" style="endArrow=classic;html=1;rounded=0;" parent="M7CGMbNuYNeq0SnUNNgH-6" edge="1">
          <mxGeometry width="50" height="50" relative="1" as="geometry">
            <mxPoint x="84.70999999999998" y="210" as="sourcePoint" />
            <mxPoint x="85.20999999999998" y="240" as="targetPoint" />
          </mxGeometry>
        </mxCell>
        <mxCell id="mvioNwK95yMqdUQ73LqQ-13" value="" style="strokeWidth=2;html=1;shape=mxgraph.flowchart.start_2;whiteSpace=wrap;" parent="M7CGMbNuYNeq0SnUNNgH-6" vertex="1">
          <mxGeometry x="205" y="185" width="20" height="20" as="geometry" />
        </mxCell>
        <mxCell id="mvioNwK95yMqdUQ73LqQ-16" value="" style="endArrow=classic;html=1;rounded=0;" parent="M7CGMbNuYNeq0SnUNNgH-6" edge="1">
          <mxGeometry width="50" height="50" relative="1" as="geometry">
            <mxPoint x="214.70999999999998" y="155" as="sourcePoint" />
            <mxPoint x="215.20999999999998" y="185" as="targetPoint" />
          </mxGeometry>
        </mxCell>
        <mxCell id="mvioNwK95yMqdUQ73LqQ-17" value="" style="endArrow=classic;html=1;rounded=0;entryX=0;entryY=0.5;entryDx=0;entryDy=0;entryPerimeter=0;" parent="M7CGMbNuYNeq0SnUNNgH-6" target="mvioNwK95yMqdUQ73LqQ-13" edge="1">
          <mxGeometry width="50" height="50" relative="1" as="geometry">
            <mxPoint x="189.99999999999997" y="155" as="sourcePoint" />
            <mxPoint x="190.49999999999997" y="185" as="targetPoint" />
            <Array as="points">
              <mxPoint x="190" y="180" />
            </Array>
          </mxGeometry>
        </mxCell>
        <mxCell id="mvioNwK95yMqdUQ73LqQ-18" value="" style="endArrow=classic;html=1;rounded=0;entryX=1;entryY=0.5;entryDx=0;entryDy=0;entryPerimeter=0;" parent="M7CGMbNuYNeq0SnUNNgH-6" target="mvioNwK95yMqdUQ73LqQ-13" edge="1">
          <mxGeometry width="50" height="50" relative="1" as="geometry">
            <mxPoint x="239.99999999999997" y="155" as="sourcePoint" />
            <mxPoint x="240.49999999999997" y="185" as="targetPoint" />
            <Array as="points">
              <mxPoint x="240" y="180" />
            </Array>
          </mxGeometry>
        </mxCell>
        <mxCell id="mvioNwK95yMqdUQ73LqQ-19" value="" style="endArrow=classic;html=1;rounded=0;" parent="M7CGMbNuYNeq0SnUNNgH-6" edge="1">
          <mxGeometry width="50" height="50" relative="1" as="geometry">
            <mxPoint x="214.70999999999998" y="205" as="sourcePoint" />
            <mxPoint x="215.20999999999998" y="235" as="targetPoint" />
          </mxGeometry>
        </mxCell>
        <mxCell id="mvioNwK95yMqdUQ73LqQ-20" value="&lt;font data-font-src=&quot;https://fonts.googleapis.com/css?family=Sarabun&quot; face=&quot;Sarabun&quot;&gt;ตัวเชื่อม&lt;/font&gt;" style="text;html=1;align=center;verticalAlign=middle;resizable=0;points=[];autosize=1;strokeColor=none;fillColor=none;" parent="M7CGMbNuYNeq0SnUNNgH-6" vertex="1">
          <mxGeometry x="220" y="190" width="60" height="30" as="geometry" />
        </mxCell>
        <mxCell id="mvioNwK95yMqdUQ73LqQ-25" value="" style="endArrow=classic;html=1;rounded=0;" parent="M7CGMbNuYNeq0SnUNNgH-6" edge="1">
          <mxGeometry width="50" height="50" relative="1" as="geometry">
            <mxPoint x="353.71" y="165" as="sourcePoint" />
            <mxPoint x="354.21" y="195" as="targetPoint" />
          </mxGeometry>
        </mxCell>
        <mxCell id="mvioNwK95yMqdUQ73LqQ-21" value="" style="verticalLabelPosition=bottom;verticalAlign=top;html=1;shape=offPageConnector;rounded=0;size=0.5;" parent="M7CGMbNuYNeq0SnUNNgH-6" vertex="1">
          <mxGeometry x="339" y="195" width="30" height="30" as="geometry" />
        </mxCell>
        <mxCell id="mvioNwK95yMqdUQ73LqQ-26" value="" style="endArrow=classic;html=1;rounded=0;" parent="M7CGMbNuYNeq0SnUNNgH-6" edge="1">
          <mxGeometry width="50" height="50" relative="1" as="geometry">
            <mxPoint x="405.71" y="195" as="sourcePoint" />
            <mxPoint x="406.21" y="225" as="targetPoint" />
          </mxGeometry>
        </mxCell>
        <mxCell id="mvioNwK95yMqdUQ73LqQ-27" value="" style="verticalLabelPosition=bottom;verticalAlign=top;html=1;shape=offPageConnector;rounded=0;size=0.5;" parent="M7CGMbNuYNeq0SnUNNgH-6" vertex="1">
          <mxGeometry x="391" y="165" width="30" height="30" as="geometry" />
        </mxCell>
        <mxCell id="mvioNwK95yMqdUQ73LqQ-28" value="หน้าต่อไป" style="text;html=1;align=center;verticalAlign=middle;resizable=0;points=[];autosize=1;strokeColor=none;fillColor=none;fontFamily=Sarabun;fontSource=https%3A%2F%2Ffonts.googleapis.com%2Fcss%3Ffamily%3DSarabun;" parent="M7CGMbNuYNeq0SnUNNgH-6" vertex="1">
          <mxGeometry x="345" y="220" width="70" height="30" as="geometry" />
        </mxCell>
        <mxCell id="mvioNwK95yMqdUQ73LqQ-29" value="ก" style="text;html=1;align=center;verticalAlign=middle;resizable=0;points=[];autosize=1;strokeColor=none;fillColor=none;fontFamily=Sarabun;fontSource=https%3A%2F%2Ffonts.googleapis.com%2Fcss%3Ffamily%3DSarabun;" parent="M7CGMbNuYNeq0SnUNNgH-6" vertex="1">
          <mxGeometry x="339" y="190" width="30" height="30" as="geometry" />
        </mxCell>
        <mxCell id="mvioNwK95yMqdUQ73LqQ-30" value="ก" style="text;html=1;align=center;verticalAlign=middle;resizable=0;points=[];autosize=1;strokeColor=none;fillColor=none;fontFamily=Sarabun;fontSource=https%3A%2F%2Ffonts.googleapis.com%2Fcss%3Ffamily%3DSarabun;" parent="M7CGMbNuYNeq0SnUNNgH-6" vertex="1">
          <mxGeometry x="391" y="160" width="30" height="30" as="geometry" />
        </mxCell>
        <mxCell id="mvioNwK95yMqdUQ73LqQ-32" value="แสดงผล/รับค่า" style="shape=parallelogram;perimeter=parallelogramPerimeter;whiteSpace=wrap;html=1;fixedSize=1;fontFamily=Sarabun;fontSource=https%3A%2F%2Ffonts.googleapis.com%2Fcss%3Ffamily%3DSarabun;" parent="M7CGMbNuYNeq0SnUNNgH-6" vertex="1">
          <mxGeometry x="450" y="210" width="120" height="30" as="geometry" />
        </mxCell>
        <mxCell id="mvioNwK95yMqdUQ73LqQ-33" value="" style="endArrow=classic;html=1;rounded=0;" parent="M7CGMbNuYNeq0SnUNNgH-6" edge="1">
          <mxGeometry width="50" height="50" relative="1" as="geometry">
            <mxPoint x="509.71" y="180" as="sourcePoint" />
            <mxPoint x="510.21" y="210" as="targetPoint" />
          </mxGeometry>
        </mxCell>
        <mxCell id="mvioNwK95yMqdUQ73LqQ-34" value="" style="endArrow=classic;html=1;rounded=0;" parent="M7CGMbNuYNeq0SnUNNgH-6" edge="1">
          <mxGeometry width="50" height="50" relative="1" as="geometry">
            <mxPoint x="509.71" y="240" as="sourcePoint" />
            <mxPoint x="510.21" y="270" as="targetPoint" />
          </mxGeometry>
        </mxCell>
        <mxCell id="mvioNwK95yMqdUQ73LqQ-36" value="แก้ไขโจทย์ปัญหา" style="swimlane;fontFamily=Sarabun;fontSource=https%3A%2F%2Ffonts.googleapis.com%2Fcss%3Ffamily%3DSarabun;" parent="WIyWlLk6GJQsqaUBKTNV-1" vertex="1">
          <mxGeometry x="-770" y="530" width="1105" height="1670" as="geometry" />
        </mxCell>
        <mxCell id="RZ2QObE-bK_krdziwFGL-1" value="" style="edgeStyle=orthogonalEdgeStyle;rounded=0;orthogonalLoop=1;jettySize=auto;html=1;" edge="1" parent="mvioNwK95yMqdUQ73LqQ-36" source="mvioNwK95yMqdUQ73LqQ-35" target="RZ2QObE-bK_krdziwFGL-0">
          <mxGeometry relative="1" as="geometry" />
        </mxCell>
        <mxCell id="mvioNwK95yMqdUQ73LqQ-35" value="&lt;font data-font-src=&quot;https://fonts.googleapis.com/css?family=Sarabun&quot; face=&quot;Sarabun&quot;&gt;เริ่มต้น&lt;/font&gt;" style="ellipse;whiteSpace=wrap;html=1;" parent="mvioNwK95yMqdUQ73LqQ-36" vertex="1">
          <mxGeometry x="255" y="40" width="130" height="30" as="geometry" />
        </mxCell>
        <mxCell id="mvioNwK95yMqdUQ73LqQ-69" value="&lt;font face=&quot;Sarabun&quot;&gt;สิ้นสุด&lt;/font&gt;" style="ellipse;whiteSpace=wrap;html=1;" parent="mvioNwK95yMqdUQ73LqQ-36" vertex="1">
          <mxGeometry x="770.5" y="510" width="130" height="30" as="geometry" />
        </mxCell>
        <mxCell id="RZ2QObE-bK_krdziwFGL-3" value="" style="edgeStyle=orthogonalEdgeStyle;rounded=0;orthogonalLoop=1;jettySize=auto;html=1;" edge="1" parent="mvioNwK95yMqdUQ73LqQ-36" source="RZ2QObE-bK_krdziwFGL-0" target="RZ2QObE-bK_krdziwFGL-2">
          <mxGeometry relative="1" as="geometry" />
        </mxCell>
        <mxCell id="RZ2QObE-bK_krdziwFGL-0" value="&lt;font style=&quot;font-size: 11px;&quot;&gt;สร้างโปรไฟล์และพอร์ตโฟลิโอที่น่าเชื่อถือ&lt;/font&gt;" style="whiteSpace=wrap;html=1;" vertex="1" parent="mvioNwK95yMqdUQ73LqQ-36">
          <mxGeometry x="220" y="91" width="200" height="40" as="geometry" />
        </mxCell>
        <mxCell id="RZ2QObE-bK_krdziwFGL-5" value="" style="edgeStyle=orthogonalEdgeStyle;rounded=0;orthogonalLoop=1;jettySize=auto;html=1;" edge="1" parent="mvioNwK95yMqdUQ73LqQ-36" source="RZ2QObE-bK_krdziwFGL-2" target="RZ2QObE-bK_krdziwFGL-4">
          <mxGeometry relative="1" as="geometry" />
        </mxCell>
        <mxCell id="RZ2QObE-bK_krdziwFGL-2" value="&lt;font style=&quot;font-size: 11px;&quot;&gt;โพสต์ประกาศหางานบน platform ต่างๆ&lt;/font&gt;" style="whiteSpace=wrap;html=1;" vertex="1" parent="mvioNwK95yMqdUQ73LqQ-36">
          <mxGeometry x="220" y="156" width="200" height="40" as="geometry" />
        </mxCell>
        <mxCell id="RZ2QObE-bK_krdziwFGL-7" style="edgeStyle=orthogonalEdgeStyle;rounded=0;orthogonalLoop=1;jettySize=auto;html=1;entryX=0.783;entryY=0.725;entryDx=0;entryDy=0;entryPerimeter=0;" edge="1" parent="mvioNwK95yMqdUQ73LqQ-36">
          <mxGeometry relative="1" as="geometry">
            <mxPoint x="325.65999999999997" y="227.5" as="targetPoint" />
            <mxPoint x="375" y="293" as="sourcePoint" />
            <Array as="points">
              <mxPoint x="443" y="293" />
              <mxPoint x="443" y="228" />
              <mxPoint x="330" y="228" />
            </Array>
          </mxGeometry>
        </mxCell>
        <mxCell id="RZ2QObE-bK_krdziwFGL-8" value="N(เท็จ)" style="edgeLabel;html=1;align=center;verticalAlign=middle;resizable=0;points=[];" vertex="1" connectable="0" parent="RZ2QObE-bK_krdziwFGL-7">
          <mxGeometry x="-0.7686" y="-2" relative="1" as="geometry">
            <mxPoint as="offset" />
          </mxGeometry>
        </mxCell>
        <mxCell id="RZ2QObE-bK_krdziwFGL-11" value="" style="edgeStyle=orthogonalEdgeStyle;rounded=0;orthogonalLoop=1;jettySize=auto;html=1;" edge="1" parent="mvioNwK95yMqdUQ73LqQ-36" source="RZ2QObE-bK_krdziwFGL-4" target="RZ2QObE-bK_krdziwFGL-10">
          <mxGeometry relative="1" as="geometry" />
        </mxCell>
        <mxCell id="RZ2QObE-bK_krdziwFGL-12" value="Y(จริง)" style="edgeLabel;html=1;align=center;verticalAlign=middle;resizable=0;points=[];" vertex="1" connectable="0" parent="RZ2QObE-bK_krdziwFGL-11">
          <mxGeometry x="-0.1767" y="-1" relative="1" as="geometry">
            <mxPoint as="offset" />
          </mxGeometry>
        </mxCell>
        <mxCell id="RZ2QObE-bK_krdziwFGL-4" value="ลูกค้าติดต่อเข้ามา" style="rhombus;whiteSpace=wrap;html=1;" vertex="1" parent="mvioNwK95yMqdUQ73LqQ-36">
          <mxGeometry x="265" y="248" width="110" height="80" as="geometry" />
        </mxCell>
        <mxCell id="RZ2QObE-bK_krdziwFGL-6" value="" style="ellipse;whiteSpace=wrap;html=1;aspect=fixed;" vertex="1" parent="mvioNwK95yMqdUQ73LqQ-36">
          <mxGeometry x="310" y="210" width="20" height="20" as="geometry" />
        </mxCell>
        <mxCell id="RZ2QObE-bK_krdziwFGL-14" value="" style="edgeStyle=orthogonalEdgeStyle;rounded=0;orthogonalLoop=1;jettySize=auto;html=1;" edge="1" parent="mvioNwK95yMqdUQ73LqQ-36" source="RZ2QObE-bK_krdziwFGL-10" target="RZ2QObE-bK_krdziwFGL-13">
          <mxGeometry relative="1" as="geometry" />
        </mxCell>
        <mxCell id="RZ2QObE-bK_krdziwFGL-10" value="การสนทนาเบื้องต้น" style="whiteSpace=wrap;html=1;" vertex="1" parent="mvioNwK95yMqdUQ73LqQ-36">
          <mxGeometry x="260" y="369" width="120" height="32" as="geometry" />
        </mxCell>
        <mxCell id="RZ2QObE-bK_krdziwFGL-17" style="edgeStyle=orthogonalEdgeStyle;rounded=0;orthogonalLoop=1;jettySize=auto;html=1;entryX=1;entryY=0.5;entryDx=0;entryDy=0;" edge="1" parent="mvioNwK95yMqdUQ73LqQ-36" source="RZ2QObE-bK_krdziwFGL-13" target="RZ2QObE-bK_krdziwFGL-6">
          <mxGeometry relative="1" as="geometry">
            <mxPoint x="472.5" y="210" as="targetPoint" />
            <Array as="points">
              <mxPoint x="453" y="460" />
              <mxPoint x="453" y="220" />
            </Array>
          </mxGeometry>
        </mxCell>
        <mxCell id="RZ2QObE-bK_krdziwFGL-18" value="N(ไม่ผ่าน)" style="edgeLabel;html=1;align=center;verticalAlign=middle;resizable=0;points=[];" vertex="1" connectable="0" parent="RZ2QObE-bK_krdziwFGL-17">
          <mxGeometry x="-0.8274" y="-1" relative="1" as="geometry">
            <mxPoint as="offset" />
          </mxGeometry>
        </mxCell>
        <mxCell id="RZ2QObE-bK_krdziwFGL-20" value="" style="edgeStyle=orthogonalEdgeStyle;rounded=0;orthogonalLoop=1;jettySize=auto;html=1;" edge="1" parent="mvioNwK95yMqdUQ73LqQ-36" source="RZ2QObE-bK_krdziwFGL-13" target="RZ2QObE-bK_krdziwFGL-19">
          <mxGeometry relative="1" as="geometry" />
        </mxCell>
        <mxCell id="RZ2QObE-bK_krdziwFGL-21" value="Y(ผ่าน)" style="edgeLabel;html=1;align=center;verticalAlign=middle;resizable=0;points=[];" vertex="1" connectable="0" parent="RZ2QObE-bK_krdziwFGL-20">
          <mxGeometry x="-0.1467" y="-1" relative="1" as="geometry">
            <mxPoint as="offset" />
          </mxGeometry>
        </mxCell>
        <mxCell id="RZ2QObE-bK_krdziwFGL-13" value="ประเมินความเป็นไปได้" style="rhombus;whiteSpace=wrap;html=1;" vertex="1" parent="mvioNwK95yMqdUQ73LqQ-36">
          <mxGeometry x="279.5" y="420" width="80" height="80" as="geometry" />
        </mxCell>
        <mxCell id="RZ2QObE-bK_krdziwFGL-23" value="" style="edgeStyle=orthogonalEdgeStyle;rounded=0;orthogonalLoop=1;jettySize=auto;html=1;" edge="1" parent="mvioNwK95yMqdUQ73LqQ-36" source="RZ2QObE-bK_krdziwFGL-19" target="RZ2QObE-bK_krdziwFGL-22">
          <mxGeometry relative="1" as="geometry" />
        </mxCell>
        <mxCell id="RZ2QObE-bK_krdziwFGL-19" value="นัดหมายประชุม&lt;div&gt;Requirements Gathering&lt;/div&gt;" style="whiteSpace=wrap;html=1;" vertex="1" parent="mvioNwK95yMqdUQ73LqQ-36">
          <mxGeometry x="244.5" y="540" width="150.5" height="60" as="geometry" />
        </mxCell>
        <mxCell id="RZ2QObE-bK_krdziwFGL-25" value="" style="edgeStyle=orthogonalEdgeStyle;rounded=0;orthogonalLoop=1;jettySize=auto;html=1;" edge="1" parent="mvioNwK95yMqdUQ73LqQ-36" source="RZ2QObE-bK_krdziwFGL-22" target="RZ2QObE-bK_krdziwFGL-24">
          <mxGeometry relative="1" as="geometry" />
        </mxCell>
        <mxCell id="RZ2QObE-bK_krdziwFGL-22" value="ทำ brief เสนอส่ง" style="whiteSpace=wrap;html=1;" vertex="1" parent="mvioNwK95yMqdUQ73LqQ-36">
          <mxGeometry x="234.75" y="624" width="170.25" height="30" as="geometry" />
        </mxCell>
        <mxCell id="RZ2QObE-bK_krdziwFGL-27" value="" style="edgeStyle=orthogonalEdgeStyle;rounded=0;orthogonalLoop=1;jettySize=auto;html=1;" edge="1" parent="mvioNwK95yMqdUQ73LqQ-36" source="RZ2QObE-bK_krdziwFGL-24" target="RZ2QObE-bK_krdziwFGL-26">
          <mxGeometry relative="1" as="geometry" />
        </mxCell>
        <mxCell id="RZ2QObE-bK_krdziwFGL-24" value="คำนวณค่าใช้จ่ายและเสนอราคา" style="whiteSpace=wrap;html=1;" vertex="1" parent="mvioNwK95yMqdUQ73LqQ-36">
          <mxGeometry x="224.5" y="681" width="190" height="32" as="geometry" />
        </mxCell>
        <mxCell id="RZ2QObE-bK_krdziwFGL-28" style="edgeStyle=orthogonalEdgeStyle;rounded=0;orthogonalLoop=1;jettySize=auto;html=1;strokeColor=default;entryX=1;entryY=0;entryDx=0;entryDy=0;" edge="1" parent="mvioNwK95yMqdUQ73LqQ-36" source="RZ2QObE-bK_krdziwFGL-26" target="RZ2QObE-bK_krdziwFGL-6">
          <mxGeometry relative="1" as="geometry">
            <mxPoint x="462.5" y="190" as="targetPoint" />
            <Array as="points">
              <mxPoint x="463" y="765" />
              <mxPoint x="463" y="213" />
            </Array>
          </mxGeometry>
        </mxCell>
        <mxCell id="RZ2QObE-bK_krdziwFGL-31" value="N(ไม่ตกลง)" style="edgeLabel;html=1;align=center;verticalAlign=middle;resizable=0;points=[];" vertex="1" connectable="0" parent="RZ2QObE-bK_krdziwFGL-28">
          <mxGeometry x="-0.9468" relative="1" as="geometry">
            <mxPoint x="13" as="offset" />
          </mxGeometry>
        </mxCell>
        <mxCell id="RZ2QObE-bK_krdziwFGL-33" value="" style="edgeStyle=orthogonalEdgeStyle;rounded=0;orthogonalLoop=1;jettySize=auto;html=1;" edge="1" parent="mvioNwK95yMqdUQ73LqQ-36" source="RZ2QObE-bK_krdziwFGL-26" target="RZ2QObE-bK_krdziwFGL-32">
          <mxGeometry relative="1" as="geometry" />
        </mxCell>
        <mxCell id="RZ2QObE-bK_krdziwFGL-34" value="Y(ตกลง)" style="edgeLabel;html=1;align=center;verticalAlign=middle;resizable=0;points=[];" vertex="1" connectable="0" parent="RZ2QObE-bK_krdziwFGL-33">
          <mxGeometry x="-0.2419" y="3" relative="1" as="geometry">
            <mxPoint as="offset" />
          </mxGeometry>
        </mxCell>
        <mxCell id="RZ2QObE-bK_krdziwFGL-26" value="ลูกค้าตกลงหรือไม่?" style="rhombus;whiteSpace=wrap;html=1;" vertex="1" parent="mvioNwK95yMqdUQ73LqQ-36">
          <mxGeometry x="260" y="730" width="120" height="70" as="geometry" />
        </mxCell>
        <mxCell id="RZ2QObE-bK_krdziwFGL-38" value="" style="edgeStyle=orthogonalEdgeStyle;rounded=0;orthogonalLoop=1;jettySize=auto;html=1;" edge="1" parent="mvioNwK95yMqdUQ73LqQ-36" source="RZ2QObE-bK_krdziwFGL-32" target="RZ2QObE-bK_krdziwFGL-37">
          <mxGeometry relative="1" as="geometry" />
        </mxCell>
        <mxCell id="RZ2QObE-bK_krdziwFGL-32" value="จัดทำสัญญาการทำงานที่ชัดเจน" style="whiteSpace=wrap;html=1;" vertex="1" parent="mvioNwK95yMqdUQ73LqQ-36">
          <mxGeometry x="232" y="854" width="174" height="35" as="geometry" />
        </mxCell>
        <mxCell id="RZ2QObE-bK_krdziwFGL-40" value="" style="edgeStyle=orthogonalEdgeStyle;rounded=0;orthogonalLoop=1;jettySize=auto;html=1;" edge="1" parent="mvioNwK95yMqdUQ73LqQ-36" source="RZ2QObE-bK_krdziwFGL-37" target="RZ2QObE-bK_krdziwFGL-39">
          <mxGeometry relative="1" as="geometry" />
        </mxCell>
        <mxCell id="RZ2QObE-bK_krdziwFGL-37" value="รับเงินมัดจำ 30 - 50 %" style="whiteSpace=wrap;html=1;" vertex="1" parent="mvioNwK95yMqdUQ73LqQ-36">
          <mxGeometry x="232" y="915" width="174" height="35" as="geometry" />
        </mxCell>
        <mxCell id="RZ2QObE-bK_krdziwFGL-42" value="" style="edgeStyle=orthogonalEdgeStyle;rounded=0;orthogonalLoop=1;jettySize=auto;html=1;" edge="1" parent="mvioNwK95yMqdUQ73LqQ-36" source="RZ2QObE-bK_krdziwFGL-39" target="RZ2QObE-bK_krdziwFGL-41">
          <mxGeometry relative="1" as="geometry" />
        </mxCell>
        <mxCell id="RZ2QObE-bK_krdziwFGL-39" value="ดำเนินการ phase1&amp;nbsp;" style="whiteSpace=wrap;html=1;" vertex="1" parent="mvioNwK95yMqdUQ73LqQ-36">
          <mxGeometry x="232" y="998" width="174" height="35" as="geometry" />
        </mxCell>
        <mxCell id="RZ2QObE-bK_krdziwFGL-45" value="" style="edgeStyle=orthogonalEdgeStyle;rounded=0;orthogonalLoop=1;jettySize=auto;html=1;" edge="1" parent="mvioNwK95yMqdUQ73LqQ-36" source="RZ2QObE-bK_krdziwFGL-41" target="RZ2QObE-bK_krdziwFGL-44">
          <mxGeometry relative="1" as="geometry" />
        </mxCell>
        <mxCell id="RZ2QObE-bK_krdziwFGL-47" value="N(ไม่)" style="edgeLabel;html=1;align=center;verticalAlign=middle;resizable=0;points=[];" vertex="1" connectable="0" parent="RZ2QObE-bK_krdziwFGL-45">
          <mxGeometry x="-0.245" y="1" relative="1" as="geometry">
            <mxPoint y="1" as="offset" />
          </mxGeometry>
        </mxCell>
        <mxCell id="RZ2QObE-bK_krdziwFGL-49" value="" style="edgeStyle=orthogonalEdgeStyle;rounded=0;orthogonalLoop=1;jettySize=auto;html=1;" edge="1" parent="mvioNwK95yMqdUQ73LqQ-36" source="RZ2QObE-bK_krdziwFGL-53" target="RZ2QObE-bK_krdziwFGL-48">
          <mxGeometry relative="1" as="geometry" />
        </mxCell>
        <mxCell id="RZ2QObE-bK_krdziwFGL-41" value="ลูกค้าอนุมัติหรือไม่?" style="rhombus;whiteSpace=wrap;html=1;" vertex="1" parent="mvioNwK95yMqdUQ73LqQ-36">
          <mxGeometry x="264" y="1055" width="110" height="80" as="geometry" />
        </mxCell>
        <mxCell id="RZ2QObE-bK_krdziwFGL-43" value="" style="ellipse;whiteSpace=wrap;html=1;aspect=fixed;" vertex="1" parent="mvioNwK95yMqdUQ73LqQ-36">
          <mxGeometry x="309.5" y="960" width="20" height="20" as="geometry" />
        </mxCell>
        <mxCell id="RZ2QObE-bK_krdziwFGL-46" style="edgeStyle=orthogonalEdgeStyle;rounded=0;orthogonalLoop=1;jettySize=auto;html=1;entryX=1;entryY=0.5;entryDx=0;entryDy=0;" edge="1" parent="mvioNwK95yMqdUQ73LqQ-36" source="RZ2QObE-bK_krdziwFGL-44" target="RZ2QObE-bK_krdziwFGL-43">
          <mxGeometry relative="1" as="geometry">
            <Array as="points">
              <mxPoint x="509" y="970" />
            </Array>
          </mxGeometry>
        </mxCell>
        <mxCell id="RZ2QObE-bK_krdziwFGL-44" value="แก้ไขตามข้อเสนอแนะ" style="whiteSpace=wrap;html=1;" vertex="1" parent="mvioNwK95yMqdUQ73LqQ-36">
          <mxGeometry x="449" y="1077" width="121" height="35" as="geometry" />
        </mxCell>
        <mxCell id="RZ2QObE-bK_krdziwFGL-52" value="" style="edgeStyle=orthogonalEdgeStyle;rounded=0;orthogonalLoop=1;jettySize=auto;html=1;" edge="1" parent="mvioNwK95yMqdUQ73LqQ-36" source="RZ2QObE-bK_krdziwFGL-48" target="RZ2QObE-bK_krdziwFGL-51">
          <mxGeometry relative="1" as="geometry" />
        </mxCell>
        <mxCell id="RZ2QObE-bK_krdziwFGL-48" value="ดำเนินการ phase2" style="whiteSpace=wrap;html=1;" vertex="1" parent="mvioNwK95yMqdUQ73LqQ-36">
          <mxGeometry x="254" y="1207" width="131" height="25" as="geometry" />
        </mxCell>
        <mxCell id="RZ2QObE-bK_krdziwFGL-60" value="" style="edgeStyle=orthogonalEdgeStyle;rounded=0;orthogonalLoop=1;jettySize=auto;html=1;" edge="1" parent="mvioNwK95yMqdUQ73LqQ-36" source="RZ2QObE-bK_krdziwFGL-51" target="RZ2QObE-bK_krdziwFGL-58">
          <mxGeometry relative="1" as="geometry" />
        </mxCell>
        <mxCell id="RZ2QObE-bK_krdziwFGL-62" value="N(ไม่)" style="edgeLabel;html=1;align=center;verticalAlign=middle;resizable=0;points=[];" vertex="1" connectable="0" parent="RZ2QObE-bK_krdziwFGL-60">
          <mxGeometry x="-0.1008" y="-2" relative="1" as="geometry">
            <mxPoint as="offset" />
          </mxGeometry>
        </mxCell>
        <mxCell id="RZ2QObE-bK_krdziwFGL-64" value="" style="edgeStyle=orthogonalEdgeStyle;rounded=0;orthogonalLoop=1;jettySize=auto;html=1;" edge="1" parent="mvioNwK95yMqdUQ73LqQ-36" source="RZ2QObE-bK_krdziwFGL-51" target="RZ2QObE-bK_krdziwFGL-63">
          <mxGeometry relative="1" as="geometry" />
        </mxCell>
        <mxCell id="RZ2QObE-bK_krdziwFGL-65" value="Y(อนุมัติ)" style="edgeLabel;html=1;align=center;verticalAlign=middle;resizable=0;points=[];" vertex="1" connectable="0" parent="RZ2QObE-bK_krdziwFGL-64">
          <mxGeometry x="-0.4282" y="1" relative="1" as="geometry">
            <mxPoint as="offset" />
          </mxGeometry>
        </mxCell>
        <mxCell id="RZ2QObE-bK_krdziwFGL-51" value="ลูกค้าอนุมัติหรือไม่?" style="rhombus;whiteSpace=wrap;html=1;" vertex="1" parent="mvioNwK95yMqdUQ73LqQ-36">
          <mxGeometry x="265" y="1261" width="110.5" height="77.5" as="geometry" />
        </mxCell>
        <mxCell id="RZ2QObE-bK_krdziwFGL-53" value="" style="ellipse;whiteSpace=wrap;html=1;aspect=fixed;" vertex="1" parent="mvioNwK95yMqdUQ73LqQ-36">
          <mxGeometry x="309.5" y="1170" width="20" height="20" as="geometry" />
        </mxCell>
        <mxCell id="RZ2QObE-bK_krdziwFGL-54" value="" style="edgeStyle=orthogonalEdgeStyle;rounded=0;orthogonalLoop=1;jettySize=auto;html=1;" edge="1" parent="mvioNwK95yMqdUQ73LqQ-36" source="RZ2QObE-bK_krdziwFGL-41" target="RZ2QObE-bK_krdziwFGL-53">
          <mxGeometry relative="1" as="geometry">
            <mxPoint x="-413.5" y="1665" as="sourcePoint" />
            <mxPoint x="-412.5" y="1737" as="targetPoint" />
          </mxGeometry>
        </mxCell>
        <mxCell id="RZ2QObE-bK_krdziwFGL-55" value="Y(อนุมัติ)" style="edgeLabel;html=1;align=center;verticalAlign=middle;resizable=0;points=[];" vertex="1" connectable="0" parent="RZ2QObE-bK_krdziwFGL-54">
          <mxGeometry x="-0.5" y="1" relative="1" as="geometry">
            <mxPoint as="offset" />
          </mxGeometry>
        </mxCell>
        <mxCell id="RZ2QObE-bK_krdziwFGL-61" style="edgeStyle=orthogonalEdgeStyle;rounded=0;orthogonalLoop=1;jettySize=auto;html=1;entryX=1;entryY=0.5;entryDx=0;entryDy=0;" edge="1" parent="mvioNwK95yMqdUQ73LqQ-36" source="RZ2QObE-bK_krdziwFGL-58" target="RZ2QObE-bK_krdziwFGL-53">
          <mxGeometry relative="1" as="geometry">
            <Array as="points">
              <mxPoint x="513" y="1180" />
            </Array>
          </mxGeometry>
        </mxCell>
        <mxCell id="RZ2QObE-bK_krdziwFGL-58" value="แก้ไขตามข้อเสนอแนะ" style="whiteSpace=wrap;html=1;" vertex="1" parent="mvioNwK95yMqdUQ73LqQ-36">
          <mxGeometry x="449" y="1282.25" width="121" height="35" as="geometry" />
        </mxCell>
        <mxCell id="RZ2QObE-bK_krdziwFGL-67" value="" style="edgeStyle=orthogonalEdgeStyle;rounded=0;orthogonalLoop=1;jettySize=auto;html=1;" edge="1" parent="mvioNwK95yMqdUQ73LqQ-36" source="RZ2QObE-bK_krdziwFGL-63" target="RZ2QObE-bK_krdziwFGL-66">
          <mxGeometry relative="1" as="geometry" />
        </mxCell>
        <mxCell id="RZ2QObE-bK_krdziwFGL-63" value="final phase&lt;div&gt;ทดสอบเว็บไซต์&lt;div&gt;ให้ครบทุกฟังก์ชัน&lt;/div&gt;&lt;/div&gt;" style="whiteSpace=wrap;html=1;" vertex="1" parent="mvioNwK95yMqdUQ73LqQ-36">
          <mxGeometry x="260.25" y="1392.25" width="119.75" height="47.75" as="geometry" />
        </mxCell>
        <mxCell id="RZ2QObE-bK_krdziwFGL-77" value="" style="edgeStyle=orthogonalEdgeStyle;rounded=0;orthogonalLoop=1;jettySize=auto;html=1;" edge="1" parent="mvioNwK95yMqdUQ73LqQ-36" source="RZ2QObE-bK_krdziwFGL-66" target="RZ2QObE-bK_krdziwFGL-73">
          <mxGeometry relative="1" as="geometry" />
        </mxCell>
        <mxCell id="RZ2QObE-bK_krdziwFGL-66" value="&lt;br&gt;&lt;div&gt;&lt;span style=&quot;text-wrap-mode: nowrap;&quot;&gt;ให้คำแนะนำการใช้งาน&lt;/span&gt;&lt;span style=&quot;text-wrap-mode: nowrap;&quot;&gt;&lt;/span&gt;&lt;/div&gt;" style="whiteSpace=wrap;html=1;" vertex="1" parent="mvioNwK95yMqdUQ73LqQ-36">
          <mxGeometry x="240.37" y="1458" width="159.75" height="50" as="geometry" />
        </mxCell>
        <mxCell id="RZ2QObE-bK_krdziwFGL-76" value="" style="verticalLabelPosition=bottom;verticalAlign=top;html=1;shape=offPageConnector;rounded=0;size=0.5;" vertex="1" parent="mvioNwK95yMqdUQ73LqQ-36">
          <mxGeometry x="306" y="1550" width="30" height="30" as="geometry" />
        </mxCell>
        <mxCell id="RZ2QObE-bK_krdziwFGL-73" value="ก" style="text;html=1;align=center;verticalAlign=middle;resizable=0;points=[];autosize=1;strokeColor=none;fillColor=none;fontFamily=Sarabun;fontSource=https%3A%2F%2Ffonts.googleapis.com%2Fcss%3Ffamily%3DSarabun;" vertex="1" parent="mvioNwK95yMqdUQ73LqQ-36">
          <mxGeometry x="305.5" y="1547" width="30" height="30" as="geometry" />
        </mxCell>
        <mxCell id="RZ2QObE-bK_krdziwFGL-72" value="หน้าต่อไป" style="text;html=1;align=center;verticalAlign=middle;resizable=0;points=[];autosize=1;strokeColor=none;fillColor=none;fontFamily=Sarabun;fontSource=https%3A%2F%2Ffonts.googleapis.com%2Fcss%3Ffamily%3DSarabun;" vertex="1" parent="mvioNwK95yMqdUQ73LqQ-36">
          <mxGeometry x="335" y="1577" width="70" height="30" as="geometry" />
        </mxCell>
        <mxCell id="RZ2QObE-bK_krdziwFGL-81" value="" style="edgeStyle=orthogonalEdgeStyle;rounded=0;orthogonalLoop=1;jettySize=auto;html=1;" edge="1" parent="mvioNwK95yMqdUQ73LqQ-36" source="RZ2QObE-bK_krdziwFGL-86" target="RZ2QObE-bK_krdziwFGL-80">
          <mxGeometry relative="1" as="geometry" />
        </mxCell>
        <mxCell id="RZ2QObE-bK_krdziwFGL-78" value="" style="verticalLabelPosition=bottom;verticalAlign=top;html=1;shape=offPageConnector;rounded=0;size=0.5;" vertex="1" parent="mvioNwK95yMqdUQ73LqQ-36">
          <mxGeometry x="821" y="40" width="29.5" height="30" as="geometry" />
        </mxCell>
        <mxCell id="RZ2QObE-bK_krdziwFGL-79" value="ก" style="text;html=1;align=center;verticalAlign=middle;resizable=0;points=[];autosize=1;strokeColor=none;fillColor=none;fontFamily=Sarabun;fontSource=https%3A%2F%2Ffonts.googleapis.com%2Fcss%3Ffamily%3DSarabun;" vertex="1" parent="mvioNwK95yMqdUQ73LqQ-36">
          <mxGeometry x="820" y="40" width="30" height="30" as="geometry" />
        </mxCell>
        <mxCell id="RZ2QObE-bK_krdziwFGL-83" value="" style="edgeStyle=orthogonalEdgeStyle;rounded=0;orthogonalLoop=1;jettySize=auto;html=1;" edge="1" parent="mvioNwK95yMqdUQ73LqQ-36" source="RZ2QObE-bK_krdziwFGL-80" target="RZ2QObE-bK_krdziwFGL-82">
          <mxGeometry relative="1" as="geometry" />
        </mxCell>
        <mxCell id="RZ2QObE-bK_krdziwFGL-80" value="&lt;span style=&quot;text-wrap-mode: nowrap;&quot;&gt;ส่งมอบไฟล์และเอกสารทั้งหมด&lt;/span&gt;" style="whiteSpace=wrap;html=1;verticalAlign=top;rounded=0;" vertex="1" parent="mvioNwK95yMqdUQ73LqQ-36">
          <mxGeometry x="758.5" y="144" width="154.5" height="36" as="geometry" />
        </mxCell>
        <mxCell id="RZ2QObE-bK_krdziwFGL-85" value="" style="edgeStyle=orthogonalEdgeStyle;rounded=0;orthogonalLoop=1;jettySize=auto;html=1;" edge="1" parent="mvioNwK95yMqdUQ73LqQ-36" source="RZ2QObE-bK_krdziwFGL-82" target="RZ2QObE-bK_krdziwFGL-84">
          <mxGeometry relative="1" as="geometry" />
        </mxCell>
        <mxCell id="RZ2QObE-bK_krdziwFGL-89" value="N(ไม่พอใจ)" style="edgeLabel;html=1;align=center;verticalAlign=middle;resizable=0;points=[];" vertex="1" connectable="0" parent="RZ2QObE-bK_krdziwFGL-85">
          <mxGeometry x="-0.5366" relative="1" as="geometry">
            <mxPoint as="offset" />
          </mxGeometry>
        </mxCell>
        <mxCell id="RZ2QObE-bK_krdziwFGL-91" value="" style="edgeStyle=orthogonalEdgeStyle;rounded=0;orthogonalLoop=1;jettySize=auto;html=1;" edge="1" parent="mvioNwK95yMqdUQ73LqQ-36" source="RZ2QObE-bK_krdziwFGL-82" target="RZ2QObE-bK_krdziwFGL-90">
          <mxGeometry relative="1" as="geometry" />
        </mxCell>
        <mxCell id="RZ2QObE-bK_krdziwFGL-92" value="Y(พอใจ)" style="edgeLabel;html=1;align=center;verticalAlign=middle;resizable=0;points=[];" vertex="1" connectable="0" parent="RZ2QObE-bK_krdziwFGL-91">
          <mxGeometry x="-0.2712" y="2" relative="1" as="geometry">
            <mxPoint as="offset" />
          </mxGeometry>
        </mxCell>
        <mxCell id="RZ2QObE-bK_krdziwFGL-82" value="&lt;div&gt;&lt;br&gt;&lt;/div&gt;&lt;div&gt;&lt;br&gt;&lt;/div&gt;&lt;div&gt;ลูกค้าพอใจหรือไม่?&lt;/div&gt;" style="rhombus;whiteSpace=wrap;html=1;verticalAlign=top;rounded=0;" vertex="1" parent="mvioNwK95yMqdUQ73LqQ-36">
          <mxGeometry x="770" y="216" width="130" height="80" as="geometry" />
        </mxCell>
        <mxCell id="RZ2QObE-bK_krdziwFGL-88" style="edgeStyle=orthogonalEdgeStyle;rounded=0;orthogonalLoop=1;jettySize=auto;html=1;entryX=1;entryY=0.5;entryDx=0;entryDy=0;" edge="1" parent="mvioNwK95yMqdUQ73LqQ-36" source="RZ2QObE-bK_krdziwFGL-84" target="RZ2QObE-bK_krdziwFGL-86">
          <mxGeometry relative="1" as="geometry">
            <Array as="points">
              <mxPoint x="1013" y="111" />
            </Array>
          </mxGeometry>
        </mxCell>
        <mxCell id="RZ2QObE-bK_krdziwFGL-84" value="แก้ไขเพิ่มเติมให้ลูกค้า" style="whiteSpace=wrap;html=1;verticalAlign=top;rounded=0;" vertex="1" parent="mvioNwK95yMqdUQ73LqQ-36">
          <mxGeometry x="952.5" y="147" width="120" height="26" as="geometry" />
        </mxCell>
        <mxCell id="RZ2QObE-bK_krdziwFGL-86" value="" style="ellipse;whiteSpace=wrap;html=1;aspect=fixed;" vertex="1" parent="mvioNwK95yMqdUQ73LqQ-36">
          <mxGeometry x="825.5" y="101" width="20" height="20" as="geometry" />
        </mxCell>
        <mxCell id="RZ2QObE-bK_krdziwFGL-87" value="" style="edgeStyle=orthogonalEdgeStyle;rounded=0;orthogonalLoop=1;jettySize=auto;html=1;" edge="1" parent="mvioNwK95yMqdUQ73LqQ-36" source="RZ2QObE-bK_krdziwFGL-78" target="RZ2QObE-bK_krdziwFGL-86">
          <mxGeometry relative="1" as="geometry">
            <mxPoint x="103.5" y="621" as="sourcePoint" />
            <mxPoint x="103.5" y="674" as="targetPoint" />
          </mxGeometry>
        </mxCell>
        <mxCell id="RZ2QObE-bK_krdziwFGL-95" value="" style="edgeStyle=orthogonalEdgeStyle;rounded=0;orthogonalLoop=1;jettySize=auto;html=1;" edge="1" parent="mvioNwK95yMqdUQ73LqQ-36" source="RZ2QObE-bK_krdziwFGL-90" target="RZ2QObE-bK_krdziwFGL-94">
          <mxGeometry relative="1" as="geometry" />
        </mxCell>
        <mxCell id="RZ2QObE-bK_krdziwFGL-90" value="&lt;div&gt;&lt;span style=&quot;background-color: transparent; color: light-dark(rgb(0, 0, 0), rgb(255, 255, 255));&quot;&gt;รับเงินส่วนที่เหลือ&lt;/span&gt;&lt;/div&gt;" style="whiteSpace=wrap;html=1;verticalAlign=top;rounded=0;" vertex="1" parent="mvioNwK95yMqdUQ73LqQ-36">
          <mxGeometry x="768" y="340" width="135" height="29" as="geometry" />
        </mxCell>
        <mxCell id="RZ2QObE-bK_krdziwFGL-97" value="" style="edgeStyle=orthogonalEdgeStyle;rounded=0;orthogonalLoop=1;jettySize=auto;html=1;" edge="1" parent="mvioNwK95yMqdUQ73LqQ-36" source="RZ2QObE-bK_krdziwFGL-94" target="RZ2QObE-bK_krdziwFGL-96">
          <mxGeometry relative="1" as="geometry" />
        </mxCell>
        <mxCell id="RZ2QObE-bK_krdziwFGL-94" value="ติดตามผลหลังส่งมอบงาน" style="whiteSpace=wrap;html=1;verticalAlign=top;rounded=0;" vertex="1" parent="mvioNwK95yMqdUQ73LqQ-36">
          <mxGeometry x="768.25" y="391" width="135" height="29" as="geometry" />
        </mxCell>
        <mxCell id="RZ2QObE-bK_krdziwFGL-96" value="ขอรีวิวและคำแนะนำเพื่อพัฒนาต่อไป" style="whiteSpace=wrap;html=1;verticalAlign=top;rounded=0;" vertex="1" parent="mvioNwK95yMqdUQ73LqQ-36">
          <mxGeometry x="744.87" y="445" width="181.75" height="30" as="geometry" />
        </mxCell>
        <mxCell id="RZ2QObE-bK_krdziwFGL-98" style="edgeStyle=orthogonalEdgeStyle;rounded=0;orthogonalLoop=1;jettySize=auto;html=1;entryX=0.504;entryY=0.096;entryDx=0;entryDy=0;entryPerimeter=0;" edge="1" parent="mvioNwK95yMqdUQ73LqQ-36" source="RZ2QObE-bK_krdziwFGL-96" target="mvioNwK95yMqdUQ73LqQ-69">
          <mxGeometry relative="1" as="geometry" />
        </mxCell>
        <mxCell id="mvioNwK95yMqdUQ73LqQ-70" value="&lt;font data-font-src=&quot;https://fonts.googleapis.com/css?family=Sarabun&quot; face=&quot;Sarabun&quot;&gt;โจทย์ปัญหา&lt;/font&gt;" style="swimlane;whiteSpace=wrap;html=1;" parent="WIyWlLk6GJQsqaUBKTNV-1" vertex="1">
          <mxGeometry x="-732.5" y="320" width="675" height="190" as="geometry" />
        </mxCell>
        <mxCell id="mvioNwK95yMqdUQ73LqQ-71" value="&lt;p style=&quot;line-height: 120%;&quot;&gt;&lt;font data-font-src=&quot;https://fonts.googleapis.com/css?family=Sarabun&quot; face=&quot;Sarabun&quot; style=&quot;font-size: 14px;&quot;&gt;&lt;b&gt;&lt;u&gt;โจทย์&lt;/u&gt;&lt;/b&gt; จงเขียน Flowchart เพื่ออธิบายกระบวนการในการรับงานทำเว็บไซต์จากลูกค้า&lt;br&gt;&amp;nbsp; &amp;nbsp; &amp;nbsp; &amp;nbsp; &amp;nbsp; (ดูตัวอย่างได้จากเว็บไซท์ https://www.fastwork.com)&lt;br&gt;&lt;/font&gt;&lt;br&gt;&lt;/p&gt;&lt;p style=&quot;line-height: 120%;&quot;&gt;&lt;font face=&quot;Sarabun&quot;&gt;&lt;b&gt;&lt;u&gt;หมายเหตุ&lt;/u&gt;&lt;/b&gt;&amp;nbsp;ควรมีขั้นตอนครบถ้วน เปรียบเสมือนตัวคุณเอง ที่กำลังอยากเริ่มต้นรับงานทำเว็บไซต์จากลูกค้าของคุณเอง&lt;br&gt;&amp;nbsp; &amp;nbsp; &amp;nbsp; &amp;nbsp; คุณจะต้องคำนึงถึงขั้นตอนทุกอย่างให้รอบคอบตั้งแต่การโพสหางาน การพูดคุยเพื่อคัดกรองลูกค้า&lt;br&gt;&amp;nbsp; &amp;nbsp; &amp;nbsp; &amp;nbsp; การพูดคุยเรื่องความต้องการของลูกค้าเป็นข้อๆให้ชัดเจน การเซ็นต์สัญญารับงาน การรับเงินล่วงหน้าก่อน ฯลฯ&lt;/font&gt;&lt;/p&gt;&lt;p style=&quot;line-height: 120%;&quot;&gt;&lt;font face=&quot;Sarabun&quot;&gt;&lt;br&gt;&lt;/font&gt;&lt;/p&gt;" style="text;html=1;align=left;verticalAlign=top;resizable=0;points=[];autosize=1;strokeColor=none;fillColor=none;fontSize=14;" parent="mvioNwK95yMqdUQ73LqQ-70" vertex="1">
          <mxGeometry x="15" y="20" width="660" height="200" as="geometry" />
        </mxCell>
        <mxCell id="RZ2QObE-bK_krdziwFGL-69" value="" style="endArrow=none;dashed=1;html=1;strokeWidth=2;rounded=0;fillColor=#1ba1e2;strokeColor=#006EAF;" edge="1" parent="WIyWlLk6GJQsqaUBKTNV-1">
          <mxGeometry width="50" height="50" relative="1" as="geometry">
            <mxPoint x="-120" y="590" as="sourcePoint" />
            <mxPoint x="-120" y="2070" as="targetPoint" />
          </mxGeometry>
        </mxCell>
        <mxCell id="RZ2QObE-bK_krdziwFGL-74" value="ก" style="text;html=1;align=center;verticalAlign=middle;resizable=0;points=[];autosize=1;strokeColor=none;fillColor=none;fontFamily=Sarabun;fontSource=https%3A%2F%2Ffonts.googleapis.com%2Fcss%3Ffamily%3DSarabun;" vertex="1" parent="WIyWlLk6GJQsqaUBKTNV-1">
          <mxGeometry x="-320" y="440" width="30" height="30" as="geometry" />
        </mxCell>
      </root>
    </mxGraphModel>
  </diagram>
</mxfile>
